<svg width="44" height="44" viewBox="0 0 44 44" fill="none" xmlns="http://www.w3.org/2000/svg">
<path d="M31.4532 4.33951L29.9064 6.61651C29.9064 6.61651 30.7492 7.27238 31.1521 8.20738C31.5014 9.02826 31.7544 9.99076 30.422 11.6009L29.2189 12.8054C25.1695 9.35688 21.0541 9.19463 21.0541 9.19463H20.2814L19.851 9.88213C19.851 9.88213 16.3447 15.8441 12.976 22C11.2916 25.0773 9.62512 28.2095 8.46737 30.6804C7.88575 31.9151 7.42925 32.9904 7.13362 33.8594C6.98925 34.2939 6.88612 34.6596 6.83387 35.0625C6.77887 35.4654 6.629 36.0181 7.3055 36.696C7.98337 37.3725 8.53612 37.2213 8.939 37.1676C9.34187 37.114 9.70762 37.0123 10.1421 36.8679C11.0125 36.5723 12.0864 36.1158 13.3225 35.5341C15.7892 34.375 18.9215 32.7113 22.0001 31.0255C28.1505 27.6513 34.118 24.1505 34.118 24.1505L34.8055 23.7201V22.9034C34.8055 22.9034 34.6226 18.8375 31.1961 14.7826L31.6677 14.267C31.786 14.1488 31.8932 14.0676 32.0115 13.9659L32.3552 13.6648C33.9777 12.419 35.5136 12.4685 36.868 12.8068C37.8076 13.0442 38.6958 13.4514 39.4887 14.0085L41.2075 11.8608C41.2075 11.8608 39.6812 10.6851 37.5115 10.142C37.0317 10.0292 36.5432 9.95745 36.0512 9.92751L38.8439 7.13351L36.8666 5.15763L33.9887 8.03688C33.9193 7.71254 33.8184 7.39572 33.6876 7.09088C32.9135 5.28688 31.4532 4.34088 31.4532 4.34088V4.33951ZM21.7416 12.1165C22.645 12.2031 25.2286 12.5785 28.3169 15.6833C31.4106 18.799 31.7915 21.362 31.8822 22.2571C31.6567 22.3919 30.4811 23.1014 29.5626 23.6321C29.0756 22.5519 28.4701 21.529 27.7572 20.5824L25.5669 22.2585C26.5335 23.5469 26.9309 24.4338 27.1564 25.0085C25.0029 26.2285 22.84 27.4317 20.6677 28.6179C20.5344 28.6866 20.4161 28.7623 20.2814 28.8324C20.0284 28.0803 19.6159 27.1728 18.8637 26.125L16.6294 27.7145C17.3059 28.6605 17.6386 29.4388 17.7899 29.9489C17.816 30.0355 17.816 30.0561 17.8311 30.1208C15.7755 31.2221 13.7886 32.2795 12.1606 33.0426C11.3122 33.4414 10.71 33.6614 10.0981 33.902C10.3401 33.2901 10.5601 32.6879 10.9575 31.8395C12.0685 29.4718 13.713 26.3835 15.3822 23.3324C16.188 21.8611 16.8012 20.7598 17.5314 19.4645C17.9714 19.8509 18.5406 20.372 19.1649 21.1833L21.3126 19.5071C20.6152 18.5815 19.8072 17.7448 18.9064 17.0156C20.346 14.4911 21.4955 12.5414 21.743 12.1165H21.7416Z" fill="white"/>
</svg>
