<svg width="44" height="44" viewBox="0 0 44 44" fill="none" xmlns="http://www.w3.org/2000/svg">
<path d="M31.4531 4.33948L29.9062 6.61648C29.9062 6.61648 30.7491 7.27235 31.152 8.20735C31.5013 9.02823 31.7542 9.99073 30.4219 11.6009L29.2188 12.8054C25.1694 9.35685 21.054 9.1946 21.054 9.1946H20.2813L19.8509 9.8821C19.8509 9.8821 16.3446 15.8441 12.9759 22C11.2915 25.0772 9.625 28.2095 8.46725 30.6804C7.88562 31.9151 7.42912 32.9904 7.1335 33.8594C6.98912 34.2939 6.886 34.6596 6.83375 35.0625C6.77875 35.4654 6.62887 36.0181 7.30537 36.696C7.98325 37.3725 8.536 37.2212 8.93887 37.1676C9.34175 37.114 9.7075 37.0122 10.142 36.8679C11.0124 36.5722 12.0862 36.1157 13.3224 35.5341C15.7891 34.375 18.9214 32.7112 22 31.0255C28.1504 27.6512 34.1179 24.1505 34.1179 24.1505L34.8054 23.7201V22.9034C34.8054 22.9034 34.6225 18.8375 31.196 14.7826L31.6676 14.267C31.7859 14.1487 31.8931 14.0676 32.0114 13.9659L32.3551 13.6647C33.9776 12.419 35.5135 12.4685 36.8679 12.8067C37.8074 13.0441 38.6956 13.4514 39.4886 14.0085L41.2074 11.8607C41.2074 11.8607 39.6811 10.6851 37.5114 10.142C37.0316 10.0292 36.5431 9.95742 36.0511 9.92748L38.8438 7.13348L36.8665 5.1576L33.9886 8.03685C33.9191 7.71251 33.8183 7.39569 33.6875 7.09085C32.9134 5.28685 31.4531 4.34085 31.4531 4.34085V4.33948ZM21.7415 12.1165C22.6449 12.2031 25.2285 12.5785 28.3168 15.6832C31.4105 18.799 31.7914 21.362 31.8821 22.2571C31.6566 22.3919 30.481 23.1014 29.5625 23.6321C29.0754 22.5518 28.4699 21.529 27.7571 20.5824L25.5668 22.2585C26.5334 23.5469 26.9308 24.4337 27.1563 25.0085C25.0028 26.2285 22.8399 27.4316 20.6676 28.6179C20.5343 28.6866 20.416 28.7622 20.2813 28.8324C20.0283 28.0802 19.6158 27.1727 18.8636 26.125L16.6293 27.7145C17.3057 28.6605 17.6385 29.4387 17.7898 29.9489C17.8159 30.0355 17.8159 30.0561 17.831 30.1207C15.7754 31.2221 13.7885 32.2795 12.1605 33.0426C11.3121 33.4414 10.7099 33.6614 10.098 33.902C10.34 33.2901 10.56 32.6879 10.9574 31.8395C12.0684 29.4717 13.7129 26.3835 15.3821 23.3324C16.1879 21.8611 16.8011 20.7597 17.5312 19.4645C17.9713 19.8509 18.5405 20.372 19.1648 21.1832L21.3125 19.5071C20.6151 18.5815 19.807 17.7448 18.9062 17.0156C20.3459 14.4911 21.4954 12.5414 21.7429 12.1165H21.7415Z" fill="white"/>
</svg>
